<?xml version="1.0" encoding="UTF-8"?>
<!DOCTYPE svg PUBLIC "-//W3C//DTD SVG 1.1//EN" "http://www.w3.org/Graphics/SVG/1.1/DTD/svg11.dtd">
<!-- Creator: CorelDRAW 2019 (64-Bit) -->
<svg xmlns="http://www.w3.org/2000/svg" xml:space="preserve" width="279.4mm" height="215.9mm" version="1.1" style="shape-rendering:geometricPrecision; text-rendering:geometricPrecision; image-rendering:optimizeQuality; fill-rule:evenodd; clip-rule:evenodd"
viewBox="0 0 27940 21590"
 xmlns:xlink="http://www.w3.org/1999/xlink">
 <defs>
  <style type="text/css">
   <![CDATA[
    .str0 {stroke:#23384B;stroke-width:7.62;stroke-miterlimit:22.9256}
    .fil3 {fill:#92C84B}
    .fil2 {fill:#457D46}
    .fil0 {fill:#457D46;fill-rule:nonzero}
    .fil1 {fill:#23384B;fill-rule:nonzero}
   ]]>
  </style>
 </defs>
 <g id="Capa_x0020_1">
  <metadata id="CorelCorpID_0Corel-Layer"/>
  <g id="_1272371400992">
   <path class="fil0" d="M2812.45 15871.65l498 0 0 -2716.39 520.64 0 0 -452.73 -1539.28 0 0 452.73 520.64 0 0 2716.39zm1960.32 45.27c488.95,0 756.06,-289.74 756.06,-796.8l0 -1666.05c0,-507.06 -267.11,-796.81 -756.06,-796.81 -488.95,0 -756.06,289.75 -756.06,796.81l0 1666.05c0,507.06 267.11,796.8 756.06,796.8zm0 -452.73c-158.45,0 -258.05,-86.02 -258.05,-312.38l0 -1729.43c0,-226.37 99.6,-312.39 258.05,-312.39 158.46,0 258.06,86.02 258.06,312.39l0 1729.43c0,226.36 -99.6,312.38 -258.06,312.38zm2557.93 701.74l131.29 0 0 -452.74 -76.96 0c-90.55,0 -149.41,-9.05 -185.62,-72.43 90.54,-131.29 140.34,-303.33 140.34,-520.64l0 -1666.05c0,-507.06 -267.11,-796.81 -756.06,-796.81 -488.95,0 -756.06,289.75 -756.06,796.81l0 1666.05c0,507.06 267.11,796.8 756.06,796.8 122.24,0 235.42,-18.11 330.5,-54.32 58.85,235.42 230.89,303.33 416.51,303.33zm-747.01 -701.74c-158.45,0 -258.05,-86.02 -258.05,-312.38l0 -1729.43c0,-226.37 99.6,-312.39 258.05,-312.39 158.46,0 258.06,86.02 258.06,312.39l0 1729.43c0,226.36 -99.6,312.38 -258.06,312.38zm1815.45 452.73c488.95,0 742.48,-289.74 742.48,-796.8l0 -2417.59 -479.9 0 0 2453.81c0,226.36 -95.07,307.85 -253.53,307.85 -158.45,0 -253.53,-81.49 -253.53,-307.85l0 -2453.81 -498 0 0 2417.59c0,507.06 253.53,796.8 742.48,796.8zm1095.61 -45.27l1358.19 0 0 -452.73 -860.19 0 0 -973.37 683.63 0 0 -452.73 -683.63 0 0 -837.56 860.19 0 0 -452.73 -1358.19 0 0 3169.12zm2367.78 0l760.59 0c498,0 742.48,-276.17 742.48,-783.22l0 -1602.67c0,-507.06 -244.48,-783.23 -742.48,-783.23l-760.59 0 0 3169.12zm498 -452.73l0 -2263.66 253.53 0c158.46,0 253.53,81.5 253.53,307.86l0 1647.94c0,226.37 -95.07,307.86 -253.53,307.86l-253.53 0zm1340.09 452.73l1358.19 0 0 -452.73 -860.19 0 0 -973.37 683.63 0 0 -452.73 -683.63 0 0 -837.56 860.19 0 0 -452.73 -1358.19 0 0 3169.12zm3074.04 45.27c488.95,0 742.48,-289.74 742.48,-796.8l0 -1036.76 -719.84 0 0 452.73 249 0 0 620.25c0,226.36 -99.6,307.85 -258.06,307.85 -158.45,0 -258.05,-81.49 -258.05,-307.85l0 -1733.96c0,-226.37 99.6,-312.39 258.05,-312.39 158.46,0 258.06,86.02 258.06,312.39l0 303.33 470.84 0 0 -271.64c0,-507.06 -253.53,-796.81 -742.48,-796.81 -488.95,0 -742.48,289.75 -742.48,796.81l0 1666.05c0,507.06 253.53,796.8 742.48,796.8zm1063.92 -45.27l498 0 0 -1358.19 172.04 0c226.37,0 312.39,95.07 312.39,389.35l0 579.49c0,258.06 18.11,307.86 45.27,389.35l507.06 0c-49.8,-117.71 -54.33,-230.89 -54.33,-384.82l0 -556.86c0,-357.66 -81.49,-593.08 -330.49,-670.04l0 -9.06c221.83,-90.54 325.96,-298.8 325.96,-624.77l0 -194.67c0,-488.95 -221.84,-728.9 -737.95,-728.9l-737.95 0 0 3169.12zm498 -1810.92l0 -905.47 226.37 0c176.56,0 253.53,99.6 253.53,325.97l0 244.48c0,253.52 -113.18,335.02 -298.8,335.02l-181.1 0zm1195.22 1810.92l461.78 0 90.55 -620.24 565.91 0 0 -9.06 90.55 629.3 498 0 -516.11 -3169.12 -674.57 0 -516.11 3169.12zm611.18 -1050.34l217.32 -1566.45 9.05 0 221.84 1566.45 -448.21 0zm2028.24 1095.61c479.9,0 733.43,-289.74 733.43,-778.69l0 -448.21 -470.84 0 0 484.42c0,208.26 -99.6,289.75 -249.01,289.75 -149.4,0 -249,-81.49 -249,-289.75l0 -1770.17c0,-208.26 99.6,-294.28 249,-294.28 149.41,0 249.01,86.02 249.01,294.28l0 366.71 470.84 0 0 -335.02c0,-488.95 -253.53,-778.7 -733.43,-778.7 -479.89,0 -733.42,289.75 -733.42,778.7l0 1702.27c0,488.95 253.53,778.69 733.42,778.69zm1032.23 -45.27l498 0 0 -3169.12 -498 0 0 3169.12zm737.95 0l461.78 0 90.55 -620.24 565.91 0 0 -9.06 90.55 629.3 498 0 -516.11 -3169.12 -674.57 0 -516.11 3169.12zm611.18 -1050.34l217.32 -1566.45 9.05 0 221.84 1566.45 -448.21 0z"/>
   <path class="fil1 str0" d="M5069.54 16933.11c87.1,0 154.42,21.88 201.96,65.64 47.33,43.75 71.1,105.6 71.1,185.75 0,80.57 -23.77,142.63 -71.1,186.18 -47.54,43.54 -114.86,65.21 -201.96,65.21l-294.51 0 0 398.23 -88.15 0 0 -901.01 382.66 0zm-11.57 427.05c63.11,0 111.29,-14.52 144.53,-43.76 33.03,-29.24 49.64,-73.2 49.64,-131.9 0,-117.17 -64.79,-175.65 -194.17,-175.65l-282.94 0 0 351.31 282.94 0zm1136.45 -412.53c49.65,-21.67 103.71,-32.4 161.98,-32.4 58.48,0 112.55,10.73 162.2,32.4 49.64,21.46 92.35,51.96 128.11,91.51 35.76,39.34 63.95,88.77 84.15,147.89 20.4,59.11 30.5,124.75 30.5,196.48 0,71.95 -10.1,137.58 -30.5,196.7 -20.2,59.11 -48.39,108.55 -84.15,147.88 -35.76,39.55 -78.47,70.06 -128.11,91.51 -49.65,21.67 -103.72,32.4 -162.2,32.4 -58.27,0 -112.33,-10.73 -161.98,-32.4 -49.65,-21.45 -92.35,-51.96 -128.12,-91.51 -35.76,-39.33 -63.95,-88.77 -84.14,-147.88 -20.41,-59.12 -30.51,-124.75 -30.51,-196.7 0,-71.73 10.1,-137.37 30.51,-196.48 20.19,-59.12 48.38,-108.55 84.14,-147.89 35.77,-39.55 78.47,-70.05 128.12,-91.51zm-65.01 723.88c57.65,69.84 133.38,104.76 227.2,104.76 93.62,0 169.35,-34.92 227.41,-104.76 57.85,-70.06 86.88,-165.99 86.88,-288 0,-122.01 -29.03,-217.94 -86.88,-287.78 -58.06,-69.85 -133.79,-104.77 -227.41,-104.77 -93.82,0 -169.55,34.92 -227.2,104.77 -57.85,69.84 -86.67,165.77 -86.67,287.78 0,122.01 28.82,217.94 86.67,288zm1615.68 -738.4c62.9,0 120.12,9.47 171.45,28.61 51.33,19.15 95.5,47.13 132.74,84.15 37.23,37.02 66.06,84.15 86.25,141.37 20.41,57.43 30.5,122.85 30.5,196.27 0,73.63 -10.09,139.05 -30.5,196.49 -20.19,57.22 -49.02,104.34 -86.25,141.36 -37.24,37.03 -81.41,65.01 -132.74,84.15 -51.33,19.14 -108.55,28.61 -171.45,28.61l-321.03 0 0 -901.01 321.03 0zm-11.57 825.28c106.86,0 190.38,-32.19 251.18,-96.14 60.58,-64.16 90.88,-157.15 90.88,-278.74 0,-121.59 -30.3,-214.36 -90.88,-278.53 -60.8,-64.16 -144.32,-96.13 -251.18,-96.13l-221.31 0 0 749.54 221.31 0zm1182.73 -749.54l0 316.81 480.69 0 0 75.73 -480.69 0 0 355.1 501.1 0 0 77.63 -589.25 0 0 -901.01 589.25 0 0 75.74 -501.1 0zm1862.64 825.27l-104.34 0 -258.76 -404.96 -236.03 0 0 404.96 -88.15 0 0 -901.01 408.54 0c87.3,0 154.41,21.46 201.53,64.38 47.34,42.91 70.9,103.92 70.9,182.81 0,77.2 -22.51,137.16 -67.74,179.86 -45.23,42.7 -107.5,65.64 -186.81,68.37l260.86 405.59zm-599.13 -825.27l0 344.58 306.3 0c63.32,0 111.7,-14.52 145.36,-43.13 33.87,-28.82 50.7,-72.15 50.7,-130 0,-57.65 -16.83,-100.56 -50.7,-128.96 -33.66,-28.19 -82.04,-42.49 -145.36,-42.49l-306.3 0zm2402.48 -75.74c87.1,0 154.42,21.88 201.96,65.64 47.33,43.75 71.1,105.6 71.1,185.75 0,80.57 -23.77,142.63 -71.1,186.18 -47.54,43.54 -114.86,65.21 -201.96,65.21l-294.51 0 0 398.23 -88.15 0 0 -901.01 382.66 0zm-11.57 427.05c63.11,0 111.29,-14.52 144.53,-43.76 33.03,-29.24 49.64,-73.2 49.64,-131.9 0,-117.17 -64.79,-175.65 -194.17,-175.65l-282.94 0 0 351.31 282.94 0zm1490.29 473.96l-115.91 -282.31 -415.9 0 -115.28 282.31 -94.88 0 377.82 -901.01 83.73 0 377.82 901.01 -97.4 0zm-327.33 -804.24c-52.59,141.37 -110.44,289.89 -173.77,445.56l353.84 0c-27.97,-69 -56.58,-140.73 -85.62,-214.78 -29.24,-74.26 -51.54,-131.27 -66.68,-171.03l-22.72 -59.75 -5.05 0zm1738.73 804.24l-104.34 0 -258.76 -404.96 -236.03 0 0 404.96 -88.15 0 0 -901.01 408.54 0c87.3,0 154.41,21.46 201.53,64.38 47.34,42.91 70.9,103.92 70.9,182.81 0,77.2 -22.51,137.16 -67.74,179.86 -45.23,42.7 -107.5,65.64 -186.81,68.37l260.86 405.59zm-599.13 -825.27l0 344.58 306.3 0c63.32,0 111.7,-14.52 145.36,-43.13 33.87,-28.82 50.7,-72.15 50.7,-130 0,-57.65 -16.83,-100.56 -50.7,-128.96 -33.66,-28.19 -82.04,-42.49 -145.36,-42.49l-306.3 0zm1890.41 825.27l-115.91 -282.31 -415.9 0 -115.28 282.31 -94.88 0 377.82 -901.01 83.73 0 377.82 901.01 -97.4 0zm-327.33 -804.24c-52.59,141.37 -110.44,289.89 -173.77,445.56l353.84 0c-27.97,-69 -56.58,-140.73 -85.62,-214.78 -29.24,-74.26 -51.54,-131.27 -66.68,-171.03l-22.72 -59.75 -5.05 0zm2459.28 -96.77l94.87 0 -356.15 901.01 -81.41 0 -356.16 -901.01 97.4 0 237.72 620.59c9.47,24.61 19.35,51.75 29.66,81.41 10.31,29.45 18.3,53.01 23.98,70.26l8 25.88 5.05 0c19.35,-62.9 39.34,-122.01 60.37,-177.55l236.67 -620.59zm814.8 901.01l-88.15 0 0 -901.01 88.15 0 0 901.01zm1331.46 -901.01l94.87 0 -356.15 901.01 -81.41 0 -356.16 -901.01 97.4 0 237.72 620.59c9.47,24.61 19.35,51.75 29.66,81.41 10.31,29.45 18.3,53.01 23.98,70.26l8 25.88 5.05 0c19.35,-62.9 39.34,-122.01 60.37,-177.55l236.67 -620.59zm814.8 901.01l-88.15 0 0 -901.01 88.15 0 0 901.01zm1394.99 0l-104.34 0 -258.76 -404.96 -236.03 0 0 404.96 -88.15 0 0 -901.01 408.54 0c87.3,0 154.41,21.46 201.53,64.38 47.34,42.91 70.9,103.92 70.9,182.81 0,77.2 -22.51,137.16 -67.74,179.86 -45.23,42.7 -107.5,65.64 -186.81,68.37l260.86 405.59zm-599.13 -825.27l0 344.58 306.3 0c63.32,0 111.7,-14.52 145.36,-43.13 33.87,-28.82 50.7,-72.15 50.7,-130 0,-57.65 -16.83,-100.56 -50.7,-128.96 -33.66,-28.19 -82.04,-42.49 -145.36,-42.49l-306.3 0z"/>
   <path class="fil2" d="M12661.23 9242.17l0 37.14c41.26,56.76 60.32,273.58 95.55,355.53 415.96,-146.42 815.73,-318.34 1195.26,-507.81 329.27,-164.38 482,-344.06 734.13,-559.1 83.64,-71.33 149.41,-163.32 237.14,-207.14 -1.3,940.51 -533.99,552.6 -170.87,1263.86 204.9,401.34 420.13,646.04 690.26,985.33 317.26,398.49 557.94,363.6 682.73,450.03l393.04 0c-34.93,-134.28 -147,-159.61 -219.27,-525.08 -39,-197.29 -49.92,-449.78 -138.46,-607.42 -91.16,-162.31 -295.71,-188.01 -275.3,-467.65 20.88,-286.22 265.94,-270.74 455.46,-148.72 168.8,108.69 363.53,771.49 467.77,1026.36 91.99,224.91 215.75,248.7 499.89,213.74 228.01,-28.06 461.38,-33.52 684.6,-60.62 -108.54,-55.5 -244.06,-94.76 -312,-188.35 -52.52,-72.34 -120.01,-298.2 -123.93,-411.51 285.46,66.41 741.46,511.9 1415.16,-151.1 180.37,-177.51 455.42,-362.42 623.88,-573.91 -49.29,-61.87 -212.01,-187.14 -281.48,-242.56 -299.38,-238.77 -598.75,-472.97 -962.28,-639.51 -111.44,-51.06 -265.83,-112.81 -408.7,-116.74 -186.57,-5.13 -343.42,35.86 -526.91,15.79 -173.6,-18.99 -563.72,-111.04 -709.89,-52.22 -71.1,28.61 -114.33,86.44 -192.45,59.72 -35.25,-92.13 11.01,-64.52 106.69,-291.43 109.74,-260.26 339.83,-209.07 611.3,-155.05 123.03,24.49 252.37,31.76 385.43,51.2 283.93,41.49 447.12,82.6 737.76,14.46 130.57,-30.61 534.06,-147.27 639.47,-205.58 -170.8,-1.43 -291.11,26.14 -397.59,-57.56 -66.57,-52.34 -185.7,-166.06 -202.62,-256.55 496.54,25.67 819.26,-116.23 1033.45,-536.36 122.41,-240.1 214.33,-770.39 468.28,-1152.73 72.29,-108.85 420.74,-524.68 505.43,-574.2l0 -8.69c-77.27,8.48 -139.99,36.72 -212.3,57.65 -573.59,166.09 -934.79,243.67 -1547.93,133.35 -192.28,-34.59 -238.96,-77.33 -386.96,-142.33 -535.8,-235.31 -729.64,419.88 -894.54,550.82 10.13,-167.81 154.59,-539.73 159.44,-672.64 -88.8,53.96 -212.8,106.51 -303.44,161.71 -104.7,63.78 -165.24,126.75 -237.62,217.3 -412.3,515.83 -236.97,1111.13 -798.63,1495.94 -75.28,51.56 -218.72,135.72 -335.06,89.67 -156.72,-120.7 234.61,-595.84 285.93,-648.7 216.76,-223.25 269.52,-247.71 350.43,-649.79 54.89,-272.8 65.64,-632.34 59.19,-943.81 -7.81,-377.11 -76.28,-735.29 -76.28,-928.91l-47.53 0c-3.81,2.84 -9.31,6.06 -12,7.69 -108.2,65.36 -434.35,185.09 -536.93,213.02 -225.95,61.52 -374.32,65.43 -549.34,196.38 -143.85,107.63 -266.49,250.17 -358.97,405.98 -139.5,234.98 -127.38,281.41 -127.38,619.38 -73.3,-36.61 -204.22,-188.68 -244.88,-273.22 -47.51,-98.78 -69.77,-273.22 -73.07,-417.7 -123,129.06 -539.34,815.66 -517.58,1047.63 21.49,229.13 247.33,293.54 377.24,422.4 164.56,163.24 423.41,619.47 204.68,807.25 -73.59,63.18 -184.04,93.65 -306.36,41.57 -149.33,-63.56 -156.32,-183.14 -225.51,-377.29 -115.88,-325.13 -539.04,-712.28 -784.47,-958.29 -60.6,79.31 -206.01,561.98 -228.9,693.61 -54.65,314.31 0.34,627.36 -6.82,886.53 -45.63,-21.55 -292.11,-254.99 -342.37,-304.88 12.48,565.12 208.52,1059.53 633.43,1378.82 285.6,214.61 442.4,229.32 673.36,37.33 246.76,-205.12 409.83,-95.77 733.03,50.87 -23.14,98.49 -309.08,337.03 -388.37,403.38 -550.76,460.91 -1468.16,530.12 -1674.42,623.71z"/>
   <path class="fil3" d="M6503.01 8473.73l0 12.25c102.5,31.25 419.19,232.08 520.99,300.69 608.03,409.79 610.81,812.62 721.3,936.8 155.83,175.15 466.46,77.4 690.23,40.47 -60.1,76.12 -348.72,189.7 -434.36,273.21 261.28,183.1 712.76,71.56 974.2,-76.93 141.71,-80.48 248.06,-163.01 438.42,-199.25 454.07,-86.46 846.11,220.47 92.25,309.55 -71.56,8.45 -144.58,-0.94 -216.57,2.84 -265.46,13.91 -691.82,396.09 -886.52,588.6 -77.04,76.17 -451.63,521.02 -479.25,595.52 124.58,59.78 267.6,98.38 393.49,171.23 297.88,172.39 459.36,298.22 889.64,165.23 276,-85.31 223.95,-178.66 356.13,-231.94 0,336.29 -70.52,320.85 -200.36,514.76 208.5,0 702.69,-158.05 803.55,-252.32 205.08,-191.68 -81.94,-423.94 149.81,-834.99 69.7,-123.63 181.9,-214.83 332.36,-106.83 148.35,106.5 69.24,260.25 6.6,373.79 -137.99,250.11 -108.41,602.6 -108.41,966.06l46.82 0 23.87 -16.45c33.25,-20.01 6.14,-5.1 36.95,-21.12 299.23,-155.61 388.64,-163.27 655.65,-456.2 70.44,-77.27 125.63,-145.74 202.05,-199.5l21.38 310.52c84.62,-58.53 253.08,-327.78 306.82,-436.54 119.64,-242.15 153.26,-644.23 -1.12,-891.84 -63.95,-102.56 -121.25,-94.69 -269.75,-113.73 -237.59,-30.47 -327.65,-303.72 -330.54,-433.67 599.07,0 796.93,75.02 1286.58,353.17 175.33,99.59 338.32,200.09 509.11,309.89 173.12,111.29 321.11,224.85 499.27,338.71l0 -67.11c-28.74,-51.74 -36.01,-121.02 -48.17,-175.47 -28.8,-128.96 -162.76,-178.53 -351.69,-287.23 -727.07,-418.25 -1047.82,-650.17 -1915.38,-634.61 205.46,-293.9 506.58,-230.29 607.27,-306.83 162.18,-123.29 355.3,-1219.93 279.37,-1489.32 -33.33,-118.23 -236.4,-545.74 -319.94,-591.16 -37.01,466.69 -247.49,522.49 -391.31,829.51 -51.53,109.97 -14.27,156.71 -28.95,280.62 -33.06,278.93 -391.08,346.22 -419.5,0.32 -9.57,-116.35 108.69,-359.22 153.55,-448.89 276.49,-552.66 250.22,-503.56 -245.46,-913.97l-152.5 -121.41c3.71,98.85 86.5,180.79 45.9,299.85 -25.71,75.42 -89.81,197.77 -145.64,237.9 -51.84,-108.05 -64.87,-209.08 -136.33,-318.9 -329.35,-506.21 -757.58,-267.12 -934.46,-373.23l-404.54 0 95.64 741.58c104.81,464.7 132.46,582.24 433.86,823.99 66.79,53.58 60.42,56.52 105.43,112.68l281.1 338.24c188.83,187.22 209.61,24.41 213.23,187.4 -171.54,4.19 -271.66,145.63 -431.02,30.37 -158.09,-114.35 -124.13,-137.01 -231.11,-278.45 -125.21,-165.54 -341.18,-459.13 -485.06,-553.55 -97.46,-63.95 -333.93,-202.76 -449.59,-230.53 33.65,73.6 104.48,72.83 133.28,183.04 31.43,120.27 6.94,172.77 6.39,284.49 -145.52,-54.29 -201.08,-253.32 -476.9,-288.14 -447.49,-56.51 -740.87,261.15 -1138.53,366.35 -186.88,49.45 -461.08,57.73 -679.53,70.48z"/>
  </g>
 </g>
</svg>
